<svg xmlns="http://www.w3.org/2000/svg" xmlns:xlink="http://www.w3.org/1999/xlink" viewBox="0 0 188.63 87.34"><defs><linearGradient id="a" x1="69.77" y1="100.72" x2="194.31" y2="100.72" gradientUnits="userSpaceOnUse"><stop offset="0" stop-color="#3a1717"></stop><stop offset="0" stop-color="#ed0d42"></stop><stop offset="1" stop-color="#45161a"></stop></linearGradient><linearGradient id="b" x1="5.69" y1="100" x2="80.78" y2="100" gradientUnits="userSpaceOnUse"><stop offset="0" stop-color="#3a1717"></stop><stop offset="1" stop-color="#ed0d42"></stop></linearGradient><linearGradient id="c" x1="26.12" y1="95.91" x2="63.71" y2="95.91" xlink:href="#b"></linearGradient></defs><title>logo-protocolo-operação-blindada</title><path d="M8.69,67s33-16,69,0c0,0,10,52-34,74C43.69,141,2.69,129,8.69,67Z" transform="translate(-5.69 -56.33)" style="fill:#fff"></path><path d="M177.57,120.76H69.77A68.59,68.59,0,0,0,77.46,97a64.82,64.82,0,0,0,0-16.29H177.57c9.25,0,16.74,6.11,16.74,13.64v12.81C194.31,114.66,186.82,120.76,177.57,120.76Z" transform="translate(-5.69 -56.33)" style="fill:url(#a)"></path><path d="M80.72,66.54a3.17,3.17,0,0,0-2-3,14.62,14.62,0,0,0-3-1.06c-1.54-.69-3.21-1-4.78-1.56a23.91,23.91,0,0,0-3.81-1.06,37.52,37.52,0,0,0-7.4-1.65h0a2.37,2.37,0,0,0-.87-.3c-2.1-.44-4.24-.62-6.36-.95V63.8l7,1.1c0-1.93,0-3.86,0-5.79,0,1.93,0,3.86,0,5.79,2.43.62,4.86,1.22,7.29,1.85,1.39.37,2.76.79,4.14,1.18.77.28,1.53.58,2.32.82a.7.7,0,0,1,.59.77c0,7.47.12,15-.07,22.41A47.16,47.16,0,0,1,69.75,110c-.12.28-.2.58-.3.88a.56.56,0,0,1,.22.45.56.56,0,0,0-.22-.45,67.91,67.91,0,0,1-4.5,7.86,49.81,49.81,0,0,1-4,5,4.51,4.51,0,0,0-.39.55.61.61,0,0,1,.23.62.61.61,0,0,0-.23-.62,70.14,70.14,0,0,1-5.77,5.26c-1.58,1.25-3.23,2.39-4.92,3.48h0a65.71,65.71,0,0,1-5.93,3.13,1.51,1.51,0,0,1-1.43,0c-.7-.37-1.44-.65-2.16-1h0c-2.53-1.52-5.15-2.88-7.52-4.64h0c-1.12-.95-2.23-1.91-3.36-2.85-1.35-1.13-2.52-2.43-3.8-3.63h0c-1-1.27-2.08-2.52-3.06-3.83a48.18,48.18,0,0,1-5.15-8.55c-.15-.3-.33-.59-.5-.88h0a70.22,70.22,0,0,1-2.73-7.86,48.83,48.83,0,0,1-1.56-9.69c-.35-7.89-.05-15.78-.17-23.67a.88.88,0,0,1,.75-1c.78-.22,1.56-.51,2.33-.77a20.48,20.48,0,0,1-.18-3.5,20.48,20.48,0,0,0,.18,3.5l7.35-2.14h0l8-1.59h0l7.51-.86c2.33-.2,4.66-.14,7-.16l7.16.64V56.92a71.18,71.18,0,0,0-7.16-.53c-2.33-.2-4.66.2-7,.14a48.49,48.49,0,0,0-7.51.84,53.38,53.38,0,0,0-8,1.53,6.4,6.4,0,0,0-1.74.35,44.37,44.37,0,0,0-5.78,1.66,28.89,28.89,0,0,0-5.64,1.86c-.32.09-.66.16-1,.26-2.3.73-3.09,1.82-3.09,4.25q0,10.86,0,21.71a65.38,65.38,0,0,0,.5,8.39,56.36,56.36,0,0,0,3.29,13,54.87,54.87,0,0,0,4.25,8.8,24.09,24.09,0,0,0,2.69,4,1.25,1.25,0,0,0,.12.31,54,54,0,0,0,8.93,9.75,14.17,14.17,0,0,0,2,1.75,32.91,32.91,0,0,0,5.12,3.55,40.55,40.55,0,0,0,7.51,4l2.22,1h1.71a2,2,0,0,1,.35-.2A42,42,0,0,0,50,140.78h0a27.51,27.51,0,0,0,4.26-2.42,43.52,43.52,0,0,0,6.85-5.25,45,45,0,0,0,5.69-5.69A26.87,26.87,0,0,0,70.15,123a52.34,52.34,0,0,0,5.95-10.57,53.06,53.06,0,0,0,4.57-20.19C80.87,83.7,80.74,75.12,80.72,66.54ZM59.58,58.61a.55.55,0,0,1,.11-.29A.55.55,0,0,0,59.58,58.61Zm-34,65.83a2.73,2.73,0,0,0-.11.81A2.73,2.73,0,0,1,25.58,124.44Z" transform="translate(-5.69 -56.33)" style="fill:url(#b)"></path><path d="M48.33,92.84c-.91.89-1.84,1.77-2.74,2.68-1.88,1.89-3.74,3.79-5.62,5.69-.4,0-.58-.33-.81-.56L33,94.55a13.38,13.38,0,0,0-1.16-1.22,3.41,3.41,0,0,0-4.63.13A3.33,3.33,0,0,0,27,98.14c1.75,1.88,3.64,3.63,5.47,5.44s3.36,3.46,5.09,5.13a3,3,0,0,0,2.58.82,3.69,3.69,0,0,0,2.36-1.23l5.66-5.66c.21-.22.5-.39.52-.75.52-.48,1-1,1.54-1.46,2.33-2.07,4.48-4.32,6.63-6.56.67-.46,1-1.22,1.63-1.71A43.94,43.94,0,0,0,62.75,88a3.41,3.41,0,0,0-4.68-4.94,22,22,0,0,0-1.72,1.76C53.6,87.43,51,90.12,48.33,92.84Z" transform="translate(-5.69 -56.33)" style="fill:url(#c)"></path><path d="M18.82,75.79l-1.61-5.5,2.94-.86a2,2,0,1,1,1.09,3.74L20,73.54l.51,1.76Zm1.52-4.91-1.06.31.28,1,1.06-.3a.5.5,0,0,0,.36-.63A.49.49,0,0,0,20.34,70.88Z" transform="translate(-5.69 -56.33)"></path><path d="M27.28,73.62,26.14,72l-.62.12.37,1.81-1.7.34L23,68.64,26,68a1.9,1.9,0,0,1,2.41,1.51,1.85,1.85,0,0,1-.66,1.91l1.43,1.77Zm-1.21-4.13-1,.22.2,1,1-.21a.53.53,0,0,0,.45-.61A.53.53,0,0,0,26.07,69.49Z" transform="translate(-5.69 -56.33)"></path><path d="M31.87,67a3,3,0,1,1,.74,5.88A3,3,0,1,1,31.87,67Zm.19,1.52a1.44,1.44,0,0,0,.35,2.85,1.44,1.44,0,0,0-.35-2.85Z" transform="translate(-5.69 -56.33)"></path><path d="M37.29,72.31,37,68.1l-1.53.1-.1-1.51,4.8-.3.09,1.51L38.76,68,39,72.2Z" transform="translate(-5.69 -56.33)"></path><path d="M43.72,66.25a3,3,0,1,1-3.13,3A3,3,0,0,1,43.72,66.25Zm0,1.53a1.44,1.44,0,0,0,0,2.87,1.44,1.44,0,0,0,0-2.87Z" transform="translate(-5.69 -56.33)"></path><path d="M47.26,69.23a2.93,2.93,0,0,1,3.28-2.76,2.69,2.69,0,0,1,2.54,1.83l-1.53.6a1.21,1.21,0,0,0-1.1-.9,1.44,1.44,0,0,0-.18,2.86,1.24,1.24,0,0,0,1.2-.76l1.45.78a2.71,2.71,0,0,1-2.74,1.5A2.94,2.94,0,0,1,47.26,69.23Z" transform="translate(-5.69 -56.33)"></path><path d="M56.83,67.08a3,3,0,1,1-3.49,2.53A3,3,0,0,1,56.83,67.08Zm-.2,1.52a1.43,1.43,0,1,0,1.18,1.6A1.35,1.35,0,0,0,56.63,68.6Z" transform="translate(-5.69 -56.33)"></path><path d="M59.71,73.38l1.11-5.62,1.7.34-.82,4.13,2.13.42-.29,1.49Z" transform="translate(-5.69 -56.33)"></path><path d="M68.23,69.33a3,3,0,1,1-3.8,2A3,3,0,0,1,68.23,69.33Zm-.4,1.47a1.44,1.44,0,1,0,1,1.75A1.36,1.36,0,0,0,67.83,70.8Z" transform="translate(-5.69 -56.33)"></path><path d="M91.94,86.17c3.67,0,6.46,2.31,6.46,5.66A7.2,7.2,0,0,1,91,99c-3.68,0-6.48-2.33-6.48-5.7A7.18,7.18,0,0,1,91.94,86.17Zm-.22,3.31a3.44,3.44,0,0,0-3.36,3.58,2.61,2.61,0,0,0,2.8,2.64,3.43,3.43,0,0,0,3.35-3.57A2.61,2.61,0,0,0,91.72,89.48Z" transform="translate(-5.69 -56.33)" style="fill:#fff"></path><path d="M98.21,98.79l2.73-12.41h6.24a3.69,3.69,0,0,1,4,3.66c0,1.81-1.21,4.92-5.51,4.92H102.8L102,98.79Zm7.54-7.11c1,0,1.5-.5,1.5-1.25,0-.57-.39-.93-1.13-.93H104l-.49,2.18Z" transform="translate(-5.69 -56.33)" style="fill:#fff"></path><path d="M110.53,98.79l2.73-12.41h9.42L122,89.5h-5.66L116,91h5.53l-.69,3.13h-5.53L115,95.66h5.65L120,98.79Z" transform="translate(-5.69 -56.33)" style="fill:#fff"></path><path d="M128.6,98.79l-.84-4h-1.51l-.87,4h-3.76l2.73-12.41h6a3.88,3.88,0,0,1,4.17,3.76,4.74,4.74,0,0,1-3.06,4.46l1.23,4.19Zm.54-7.11c.91,0,1.52-.41,1.52-1.17a1,1,0,0,0-1.09-1h-2.14l-.49,2.18Z" transform="translate(-5.69 -56.33)" style="fill:#fff"></path><path d="M142.89,98.79l-.15-1.6H138l-.84,1.6h-4.27l7.32-12.41h4.73l1.84,12.41Zm-.84-9.29-2.4,4.56h2.83Z" transform="translate(-5.69 -56.33)" style="fill:#fff"></path><path d="M154.69,86.17c3.63,0,5.38,2.12,6,4.11L157,91.42a2.43,2.43,0,0,0-2.51-1.94,3.48,3.48,0,0,0-3.4,3.58,2.64,2.64,0,0,0,2.79,2.64,3.08,3.08,0,0,0,2.51-1.43l2.94,1.9A6.81,6.81,0,0,1,153.7,99c-3.55,0-6.48-2.2-6.48-5.7C147.22,89,150.56,86.17,154.69,86.17Z" transform="translate(-5.69 -56.33)" style="fill:#fff"></path><path d="M168.14,98.79l-.14-1.6h-4.75l-.84,1.6h-4.26l7.31-12.41h4.73L172,98.79Zm-.83-9.29-2.4,4.56h2.83Z" transform="translate(-5.69 -56.33)" style="fill:#fff"></path><path d="M179.94,86.17c3.67,0,6.46,2.31,6.46,5.66A7.19,7.19,0,0,1,179,99c-3.69,0-6.48-2.33-6.48-5.7A7.17,7.17,0,0,1,179.94,86.17Zm-.22,3.31a3.44,3.44,0,0,0-3.35,3.58,2.6,2.6,0,0,0,2.79,2.64,3.43,3.43,0,0,0,3.35-3.57A2.6,2.6,0,0,0,179.72,89.48Z" transform="translate(-5.69 -56.33)" style="fill:#fff"></path><path d="M81.09,115.31,84,102h7.42c2.69,0,3.85,1.72,3.85,3.31a3.51,3.51,0,0,1-3,3.4,2.63,2.63,0,0,1,1.9,2.64c0,1.76-1.22,4-4.73,4Zm8.28-5.1H86.25l-.4,1.82H89a1.08,1.08,0,0,0,1.22-1A.79.79,0,0,0,89.37,110.21Zm.86-5H87.35L87,106.93h3a.92.92,0,0,0,1-1A.7.7,0,0,0,90.23,105.25Z" transform="translate(-5.69 -56.33)" style="fill:#fff"></path><path d="M95,115.31,98,102h4l-2.16,9.81h5.06l-.78,3.52Z" transform="translate(-5.69 -56.33)" style="fill:#fff"></path><path d="M105.73,115.31,108.67,102h4l-2.93,13.33Z" transform="translate(-5.69 -56.33)" style="fill:#fff"></path><path d="M120.88,115.31l-3.28-7.52L116,115.31h-4L114.86,102H119l3.08,7.07,1.56-7.07h4l-2.94,13.33Z" transform="translate(-5.69 -56.33)" style="fill:#fff"></path><path d="M135.7,102a5.89,5.89,0,0,1,6,5.75c0,3.38-2.14,7.58-8.9,7.58h-5.93L129.85,102Zm-2.12,9.81a3.7,3.7,0,0,0,4-3.76,2.49,2.49,0,0,0-2.6-2.54H133.1l-1.37,6.3Z" transform="translate(-5.69 -56.33)" style="fill:#fff"></path><path d="M150.71,115.31l-.16-1.72h-5.1l-.9,1.72H140L147.83,102h5.08l2,13.33Zm-.9-10-2.58,4.9h3Z" transform="translate(-5.69 -56.33)" style="fill:#fff"></path><path d="M164.4,102a5.89,5.89,0,0,1,6,5.75c0,3.38-2.14,7.58-8.89,7.58H155.6L158.54,102Zm-2.12,9.81a3.7,3.7,0,0,0,4-3.76,2.49,2.49,0,0,0-2.6-2.54H161.8l-1.38,6.3Z" transform="translate(-5.69 -56.33)" style="fill:#fff"></path><path d="M179.4,115.31l-.16-1.72h-5.09l-.9,1.72h-4.58L176.52,102h5.08l2,13.33Zm-.9-10-2.58,4.9h3Z" transform="translate(-5.69 -56.33)" style="fill:#fff"></path><path d="M168.16,86a4.71,4.71,0,0,1-.68-.5l-.1-.08A3.62,3.62,0,0,0,167,85a.83.83,0,0,0-.32-.14.59.59,0,0,0-.51.13,1,1,0,0,0-.25.57l0,.1-2.22-.35.05-.32a5.19,5.19,0,0,1,.9-2.45,1.68,1.68,0,0,1,1.65-.61,2.42,2.42,0,0,1,.72.22,3.77,3.77,0,0,1,.63.38s0,0,0,0l.05,0a.39.39,0,0,0,.1.08l.1.08a2.9,2.9,0,0,0,.41.3.8.8,0,0,0,.32.13.57.57,0,0,0,.51-.15,1.12,1.12,0,0,0,.26-.65l0-.09,2.22.36,0,.21a5.69,5.69,0,0,1-1,2.64,1.7,1.7,0,0,1-1.72.66A2.14,2.14,0,0,1,168.16,86Z" transform="translate(-5.69 -56.33)" style="fill:#fff"></path><path d="M150.5,100.32,153,96.59l2.42.92-2.72,3.61Z" transform="translate(-5.69 -56.33)" style="fill:#fff"></path></svg>