<?xml version="1.0" encoding="UTF-8"?>
<svg xmlns="http://www.w3.org/2000/svg" id="LogoWordHost" data-name="WordHost" viewBox="0 0 620.99 115.3">
  <defs>
    <style>.cls-1{fill:#fff;}.cls-2{fill:#333;fill-opacity:0;}.cls-3{fill:#72bf0f;}</style>
  </defs>
  <title>logo-wordhost</title>
  <path class="cls-1" d="M450.7,316v-1c0-19.7,14.3-32.5,33.1-32.5s33,12.6,33,32.2v1c0,19.8-14.3,32.4-33.1,32.4S450.7,335.6,450.7,316Zm48.5-.2V315c0-12-5.6-19.2-15.4-19.2-9.6,0-15.4,7-15.4,19v1c0,12,5.5,19.2,15.4,19.2C493.6,334.8,499.2,327.6,499.2,315.8Z" transform="translate(-288.81 -233.7)"></path>
  <path class="cls-1" d="M528.5,285h17.4v12c4-8.4,10.1-12.8,20.3-13v16.2c-12.8-.1-20.3,4.1-20.3,16.1v31.4H528.5Z" transform="translate(-288.81 -233.7)"></path>
  <path class="cls-1" d="M573.5,316.89v-1c0-20.8,11.9-33.12,27.6-33.12,10.1,0,16.3,4.45,19.8,10.91V255.5h17.3v92.09H620.9v-10.5C617.7,343.55,610,349,600.7,349,585.5,349,573.5,338,573.5,316.89Zm47.9-.6v-1c0-12.63-5.5-19-15-19-9.7,0-15.1,6.67-15.1,19.29v1c0,12.62,6,18.78,14.6,18.78C615.1,335.37,621.4,329.21,621.4,316.29Z" transform="translate(-288.81 -233.7)"></path>
  <path class="cls-1" d="M653.3,255.5h19.4v37.61h34.4V255.5h19.4v92.2H707.1v-38H672.7v38H653.3Z" transform="translate(-288.81 -233.7)"></path>
  <path class="cls-1" d="M738.1,316v-1c0-19.7,14.3-32.5,33.1-32.5s33,12.6,33,32.2v1c0,19.8-14.3,32.4-33.1,32.4S738.1,335.6,738.1,316Zm48.4-.2V315c0-12-5.6-19.2-15.4-19.2-9.6,0-15.4,7-15.4,19v1c0,12,5.5,19.2,15.4,19.2C780.9,334.8,786.5,327.6,786.5,315.8Z" transform="translate(-288.81 -233.7)"></path>
  <path class="cls-1" d="M812.5,327h16.2c.7,5.6,3.5,8.9,11,8.9,6.7,0,9.8-2.5,9.8-6.8s-3.7-6.1-12.7-7.4c-16.7-2.5-23.2-7.3-23.2-19.6,0-13.1,12-19.6,24.8-19.6,13.9,0,24.4,5,25.9,19.4h-16c-1-5.2-3.8-7.6-9.8-7.6-5.6,0-8.9,2.6-8.9,6.5s3,5.5,12.1,6.8c15.7,2.3,24.4,6.2,24.4,19.7s-9.8,20.6-26.4,20.6C822.9,348,813.1,340.6,812.5,327Z" transform="translate(-288.81 -233.7)"></path>
  <path class="cls-1" d="M878.9,324.3V286.4h-8V271.7h8V255.5h17.3v16.2h13.2v14.7H896.2v36c0,6,2.5,8.9,7,8.9a13.94,13.94,0,0,0,6.6-1.4v16a27.23,27.23,0,0,1-10.6,2C886,347.9,878.9,339.9,878.9,324.3Z" transform="translate(-288.81 -233.7)"></path>
  <rect class="cls-2" x="0.29" width="187" height="114"></rect>
  <path class="cls-3" d="M402.5,233.9c3.4,0,6.7-.2,10.1,0,5.2.3,6.4,2.3,3.9,6.9-3.8,7-7.3,14.3-11.9,20.7-5.8,8.1-6.1,14.9-.1,23.2,6.8,9.6,6.1,9.9,12.1-.4,8.7-15.1,17.6-30,26.3-45.1,2.1-3.7,4.8-5.5,9.1-5.4q9.45.3,18.9,0c5.5-.1,6.2,2.3,3.8,6.5-6.8,12-13.7,24-20.5,36-12.2,21.3-24.5,42.5-36.7,63.7-.4.7-.8,1.4-1.3,2.2-4.5,7.4-6.7,7.3-11-.2-6.5-11.3-13-22.5-19.5-33.7-3.1-5.4-4.3-5.5-7.5-.2-6.6,11.2-13,22.5-19.5,33.7-1.4,2.4-2.4,5.9-6,5.7-3.1-.1-3.9-3.5-5.3-5.8-12.8-22.1-12.2-14.8-.2-36.1,11.8-21,24-41.8,35.9-62.7C388.2,233.8,388.2,233.8,402.5,233.9Z" transform="translate(-288.81 -233.7)"></path>
  <path class="cls-3" d="M325,234c9.2,0,18.4-.1,27.7,0,7.5.1,8.5,1.6,4.9,8q-14.25,25.2-28.7,50.2c-3.5,6-6.2,6.1-9.8,0-9.8-16.6-19.4-33.2-28.8-50-3.1-5.5-1.4-8,5.3-8.1C305.3,233.9,315.2,234,325,234Z" transform="translate(-288.81 -233.7)"></path>
</svg>
